<svg width="20" height="20" viewBox="0 0 20 20" fill="none" xmlns="http://www.w3.org/2000/svg">
<path fill-rule="evenodd" clip-rule="evenodd" d="M12.0458 13.4596C10.7843 14.4234 9.20799 14.9959 7.49792 14.9959C3.35693 14.9959 0 11.6389 0 7.49793C0 3.35694 3.35693 0 7.49792 0C11.6389 0 14.9958 3.35694 14.9958 7.49793C14.9958 9.20799 14.4234 10.7843 13.4596 12.0458L20 18.5862L18.5862 20L12.0458 13.4596ZM12.9964 7.49793C12.9964 10.5347 10.5346 12.9964 7.49792 12.9964C4.4612 12.9964 1.99945 10.5347 1.99945 7.49793C1.99945 4.4612 4.4612 1.99945 7.49792 1.99945C10.5346 1.99945 12.9964 4.4612 12.9964 7.49793Z" fill="#14191A"/>
</svg>
